Subj06walk_36
version=1
nRows=60
nColumns=19
inDegrees=no
endheader
time	l_ground_force_vx	l_ground_force_vy	l_ground_force_vz	l_ground_force_px	l_ground_force_py	l_ground_force_pz	ground_force_vx	ground_force_vy	ground_force_vz	ground_force_px	ground_force_py	ground_force_pz	l_ground_torque_x	l_ground_torque_y	l_ground_torque_z	ground_torque_x	ground_torque_y	ground_torque_z	
45.72	0	0	0	0	0	0	-11.9398560682175	480.312043007312	-5.22463147507259	-0.096282768143849	0	0.0406942441427189	0	0	0	0	0.451575516340582	0
45.73	0	0	0	0	0	0	-10.3566364470363	484.635101448364	-4.72464800374244	-0.105282651569022	0	0.0410101194253282	0	0	0	0	0.249203845637726	0
45.74	0	0	0	0	0	0	-8.04967465429116	489.768346343934	-4.44384980680245	-0.114615935470971	0	0.0415629745434144	0	0	0	0	0.2419038652086	0
45.75	0	0	0	0	0	0	-5.20135608688158	495.712920981262	-4.46195652206293	-0.124143333633508	0	0.0424068131698281	0	0	0	0	0.380469363662021	0
45.76	0	0	0	0	0	0	-2.05640243538979	502.456920194816	-4.97492054285367	-0.133983552520117	0	0.0435394755952936	0	0	0	0	0.521041685134681	0
45.77	0	0	0	0	0	0	1.19957837831066	509.898171136094	-6.23101035536199	-0.144253872870309	0	0.0448600510799475	0	0	0	0	0.49635642953026	0
45.78	0	0	0	0	0	0	4.80221581940232	517.776567586652	-8.05026571474506	-0.154772202983629	0	0.0462008546326948	0	0	0	0	0.309559249189459	0
45.79	0	0	0	0	0	0	9.08177874868973	525.873511601336	-10.2125584586818	-0.165069680991992	0	0.047426185089246	0	0	0	0	0.0449144727240268	0
45.8	0	0	0	0	0	0	14.0996728654453	533.998984391611	-12.5552457192384	-0.175018232749566	0	0.0483332114063769	0	0	0	0	-0.185545261562848	0
45.81	0	0	0	0	0	0	19.6957737145406	542.261752735181	-14.838640490426	-0.184620284457707	0	0.0488114095002497	0	0	0	0	-0.330580158683793	0
45.82	0	0	0	0	0	0	25.5681316971859	551.106308672163	-16.7433303439207	-0.193860792071467	0	0.0489219085054663	0	0	0	0	-0.31012089499231	0
45.83	0	0	0	0	0	0	31.5537837394758	561.036416833616	-18.0287228347359	-0.202768216605648	0	0.0488714325194074	0	0	0	0	-0.0065221863237261	0
45.84	0	0	0	0	0	0	37.5579855371716	571.813593116951	-18.7905666895601	-0.211370379565351	0	0.0487537030247521	0	0	0	0	0.569269144537636	0
45.85	0	0	0	0	0	0	43.4154998542066	582.712618174582	-19.1006838272922	-0.219684775385926	0	0.0487227704469897	0	0	0	0	1.1801163148928	0
45.86	0	0	0	0	0	0	48.8067743680732	592.586296345491	-19.0648579659892	-0.227731987115456	0	0.048819372383057	0	0	0	0	1.66712375033474	0
45.87	0	0	0	0	0	0	53.7337548305447	600.010271986359	-18.8996139682239	-0.235535957719863	0	0.0489694784432734	0	0	0	0	2.0233945505632	0
45.88	0	0	0	0	0	0	58.4205048529594	603.652500270542	-18.884674720068	-0.243049250491468	0	0.0491301510214351	0	0	0	0	2.20795466554511	0
45.89	10.2052261692023	32.3884394298935	1.12741104075561	0.0832240399170099	0	-0.0206667489718775	63.0525277657869	602.371531040348	-19.1007621144544	-0.250406502708503	0	0.0492553792865465	0	0.201308237115104	0	0	2.27613643715063	0
45.9	17.2079047607476	56.9559185102697	0.164278500793124	0.100128380020423	0	-0.031577327492731	67.7237574376688	595.49752279234	-19.1338332473174	-0.257767990064217	0	0.0492823386006429	0	-0.0859975804421399	0	0	2.26863332305911	0
45.91	19.9515381183929	82.4342396974905	-1.96885628239077	0.101835776835827	0	-0.035183580319144	72.2086702210774	582.887599781717	-18.6725180398503	-0.265208453459159	0	0.049155577506628	0	-0.014687391667958	0	0	2.27122546824555	0
45.92	18.798181715833	107.306329442273	-4.8644577083218	0.0990361813419411	0	-0.0366397169400217	76.04127491237	564.840515797299	-17.5646871451738	-0.272852366255603	0	0.0488513350570415	0	0.231168398111835	0	0	2.4025101940831	0
45.93	15.1576587664451	132.631921322074	-7.66254034649944	0.0955403798754861	0	-0.0381209449687276	78.843567096372	541.879691919434	-15.7781375795496	-0.280835528383381	0	0.0483656057991414	0	0.557999285472326	0	0	2.68832210349835	0
45.94	9.29350217236281	160.168837591483	-9.24415040289747	0.0930718264252633	0	-0.0401006050514447	80.4351789860153	514.048043201017	-13.4042547481373	-0.289077753003856	0	0.0476307889767476	0	0.965869469580664	0	0	3.07182085014035	0
45.95	1.95503727922896	193.209838630616	-8.92335733366998	0.0925532596698341	0	-0.0430412944778893	80.5100507908626	481.069734443827	-10.4828191773125	-0.297174678941551	0	0.0467375219920531	0	1.32700719579085	0	0	3.54272062327033	0
45.96	-6.82809968189617	234.131167273743	-6.47302465683741	0.0940520850236276	0	-0.0464927446049419	78.8320464722785	442.385891488119	-7.00328633010807	-0.30479885054167	0	0.0458285688924776	0	1.67676864477363	0	0	4.24685381311105	0
45.97	-17.2865920490213	282.424468937919	-2.3802339860593	0.0969194885219573	0	-0.0498578177842633	75.0466408200463	397.686378445017	-3.0375186629193	-0.31182102605278	0	0.0449513576819037	0	2.15697266866021	0	0	5.15548723495236	0
45.98	-29.2640053844351	333.612458081728	2.06040529364565	0.100034677594234	0	-0.0525843186343515	68.8605906487559	347.312102781946	1.20832929395413	-0.318414849296947	0	0.0440529843804666	0	2.80725340871002	0	0	6.05412035970537	0
45.99	-41.3744563149085	380.942639267392	5.8334272058551	0.102160655958836	0	-0.054342115099663	60.244384598338	292.570239463708	5.08972493828915	-0.325156130536709	0	0.0428971370769248	0	3.58944573991981	0	0	6.56945693478109	0
46	-51.714167118189	420.119355738414	8.56799339689103	0.102459855378767	0	-0.0553548859424413	49.9132917591736	236.339258815025	7.64156626488103	-0.332704334028514	0	0.0413468734489128	0	4.41687737290926	0	0	6.44660417739705	0
46.01	-59.3592901131432	451.728593530747	10.5650916198805	0.100712133885829	0	-0.0558148410093174	39.4512597503571	182.265863904919	8.11486587763861	-0.341572950340595	0	0.0390835089125905	0	5.16546631789517	0	0	5.69343542778978	0
46.02	-64.517497732289	479.378035542844	12.1574673703229	0.0968600899750289	0	-0.0560368055825132	30.3794322614874	133.751329429716	6.5224580137695	-0.352792929533813	0	0.0358171338289478	0	5.77723261551298	0	0	4.54216044161422	0
46.03	-67.6199194758886	505.566378206747	13.3308263942448	0.0911928799238546	0	-0.0562028035505665	23.1657686628997	93.1786963071374	3.81086934794216	-0.367335031532706	0	0.0312818235978623	0	6.24687862285529	0	0	3.27832976168785	0
46.04	-69.1311895839479	530.005980816467	14.1012573734139	0.0841258511364507	0	-0.056403558223555	17.2908617466504	61.6563425078829	1.21642863040912	-0.383910023998325	0	0.0251873083420616	0	6.66121726173981	0	0	2.08349565093459	0
46.05	-69.2834602890288	550.979577183939	14.8726236721832	0.0761366280315073	0	-0.0566795250866046	12.4038065020147	38.6221231986269	-0.603161915515907	-0.399045593879237	0	0.0154547220475323	0	7.15961936414638	0	0	1.17025082883521	0
46.06	-68.0849361105257	567.179172032739	16.1202229798058	0.0675740821078498	0	-0.0571024061636479	8.71574517023476	22.5593961946762	-1.49117070307275	-0.411200079715697	0	-0.00222545338430362	0	7.61491228468234	0	0	0.73341824810615	0
46.07	-65.6701250370342	578.058953865308	18.3337367898434	0.0586796625007153	0	-0.0576131715945374	0	0	0	0	0	0	0	7.87356429180187	0	0	0	0
46.08	-62.3112041772324	583.803066785053	21.562536942268	0.0495993641811294	0	-0.0582033823367721	0	0	0	0	0	0	0	7.74652537135271	0	0	0	0
46.09	-58.3720822385217	584.775750934456	25.3571571750501	0.0407092951278476	0	-0.0588504245958665	0	0	0	0	0	0	0	7.37744984097512	0	0	0	0
46.1	-54.1705353266766	581.488264638275	29.032935117099	0.0321498532783821	0	-0.0595069613349712	0	0	0	0	0	0	0	6.97732220154009	0	0	0	0
46.11	-49.8464972525931	574.837391697624	31.8273885866509	0.0235710517731175	0	-0.0601347707460123	0	0	0	0	0	0	0	6.53772295004356	0	0	0	0
46.12	-45.4679238793152	566.152593307224	33.346595188296	0.0147757404731667	0	-0.0606720340506284	0	0	0	0	0	0	0	6.15024350786442	0	0	0	0
46.13	-41.0138148059096	556.733601503799	33.5975637170365	0.00576804056668837	0	-0.0610177304444267	0	0	0	0	0	0	0	5.86869178674906	0	0	0	0
46.14	-36.4598277437564	547.287927405137	32.7258342052705	-0.00311246978037891	0	-0.0610806480599653	0	0	0	0	0	0	0	5.66652041675378	0	0	0	0
46.15	-32.1384298176463	538.078271211637	31.1703637126762	-0.0113724047397094	0	-0.0608871768545871	0	0	0	0	0	0	0	5.51162717697533	0	0	0	0
46.16	-28.1815210755465	529.378502896275	29.365498772925	-0.0187611704646111	0	-0.0606030670264763	0	0	0	0	0	0	0	5.2765663627102	0	0	0	0
46.17	-24.6642458260384	521.599610846635	27.5208320649511	-0.0252834572374871	0	-0.0604213980969498	0	0	0	0	0	0	0	4.82626003260167	0	0	0	0
46.18	-21.6987169630507	515.116607166975	25.8475613992578	-0.0313282176290576	0	-0.0604084330572673	0	0	0	0	0	0	0	4.15298328173251	0	0	0	0
46.19	-19.3309007426061	510.229856899628	24.597053440553	-0.0372046921452012	0	-0.0605548236683082	0	0	0	0	0	0	0	3.44334044582412	0	0	0	0
46.2	-17.5055576246823	506.963477293127	23.9058755892174	-0.0428829265254093	0	-0.0608167683050276	0	0	0	0	0	0	0	2.95051717545656	0	0	0	0
46.21	-15.829024134231	505.064751253624	23.6605188786722	-0.0485040533406656	0	-0.0611612107571756	0	0	0	0	0	0	0	2.65158590923548	0	0	0	0
46.22	-14.1097054142136	503.683261465646	23.7075207045508	-0.0539960297537884	0	-0.061358298199338	0	0	0	0	0	0	0	2.4670793408504	0	0	0	0
46.23	-12.4548967021905	501.960804305005	23.7704055696597	-0.0591683746275158	0	-0.0612569743443181	0	0	0	0	0	0	0	2.38537293291675	0	0	0	0
46.24	-11.1363223862814	499.701222013098	23.5146073331094	-0.0642249008150609	0	-0.0608097179547103	0	0	0	0	0	0	0	2.48557954248066	0	0	0	0
46.25	-10.0899798213026	497.34528023102	22.8305901609647	-0.0695222110922757	0	-0.0600920832585472	0	0	0	0	0	0	0	2.57740035255043	0	0	0	0
46.26	-9.1143088849642	495.469087723887	21.7972631512685	-0.0754704151291498	0	-0.0591667271474595	0	0	0	0	0	0	0	2.35351628668815	0	0	0	0
46.27	-8.03911856475288	494.593288723502	20.5267446535153	-0.082301778819739	0	-0.0581371037759111	0	0	0	0	0	0	0	1.94891138226808	0	0	0	0
46.28	-6.88536138519427	494.828247234241	19.2734189004401	-0.0897682091335477	0	-0.0570412135667032	0	0	0	0	0	0	0	1.69570875260482	0	0	0	0
46.29	-5.50479626557701	495.913478712545	18.2161333877483	-0.0977303071571656	0	-0.0559620961940012	0	0	0	0	0	0	0	1.60781580004033	0	0	0	0
46.3	-3.81907670445106	497.29982721974	17.4606567333846	-0.106130956454508	0	-0.0548476140600667	0	0	0	0	0	0	0	1.57466840719092	0	0	0	0
46.31	-1.80509000624308	498.727531290932	16.923847536491	-0.114707632033398	0	-0.0537349422546836	0	0	0	0	0	0	0	1.46588671568748	0	0	0	0
